<svg width="48" height="48" viewBox="0 0 48 48" fill="none" xmlns="http://www.w3.org/2000/svg">
<g clip-path="url(#clip0_225_1349)">
<path fill-rule="evenodd" clip-rule="evenodd" d="M11.6769 45.2C14.3102 47.0667 17.4436 48 21.0769 48C24.5248 48 27.4928 47.1782 29.9812 45.5346C29.0907 44.942 28.2683 44.2553 27.5281 43.4886C25.6894 44.4962 23.539 45 21.0769 45C18.0102 45 15.4436 44.2417 13.3769 42.725C11.3102 41.2083 9.79357 39.2 8.8269 36.7L3.6269 23.2C3.49357 22.9 3.48524 22.6833 3.6019 22.55C3.71857 22.4167 3.94357 22.3833 4.2769 22.45C5.11024 22.65 5.78524 22.875 6.3019 23.125C6.81857 23.375 7.24357 23.9333 7.5769 24.8L9.4269 29.5H12.3269V8.25C12.3269 7.88333 12.4436 7.58333 12.6769 7.35C12.9102 7.11667 13.2102 7 13.5769 7C13.9436 7 14.2436 7.11667 14.4769 7.35C14.7102 7.58333 14.8269 7.88333 14.8269 8.25V24H18.5769V4.25C18.5769 3.88333 18.6936 3.58333 18.9269 3.35C19.1602 3.11667 19.4602 3 19.8269 3C20.1936 3 20.4936 3.11667 20.7269 3.35C20.9602 3.58333 21.0769 3.88333 21.0769 4.25V24H24.8269V7.25C24.8269 6.88333 24.9436 6.58333 25.1769 6.35C25.4102 6.11667 25.7102 6 26.0769 6C26.4436 6 26.7436 6.11667 26.9769 6.35C27.2102 6.58333 27.3269 6.88333 27.3269 7.25V23.1854C28.4072 22.0216 29.6729 21.0322 31.0769 20.2643V13.25C31.0769 12.8833 31.1936 12.5833 31.4269 12.35C31.6602 12.1167 31.9602 12 32.3269 12C32.6936 12 32.9936 12.1167 33.2269 12.35C33.4602 12.5833 33.5769 12.8833 33.5769 13.25V19.1844C34.5374 18.8717 35.5412 18.6547 36.5769 18.5447V13.25C36.5769 12.0833 36.1602 11.0833 35.3269 10.25C34.4936 9.41667 33.4936 9 32.3269 9C31.9602 9 31.5936 9.04167 31.2269 9.125C30.8602 9.20833 30.5602 9.35 30.3269 9.55V7.6C30.3269 6.43333 29.9352 5.375 29.1519 4.425C28.3686 3.475 27.3436 3 26.0769 3C25.7102 3 25.3102 3.04167 24.8769 3.125C24.4436 3.20833 24.1602 3.33333 24.0269 3.5C23.8602 2.56667 23.3936 1.75 22.6269 1.05C21.8602 0.35 20.9436 0 19.8769 0C18.7102 0 17.7019 0.416667 16.8519 1.25C16.0019 2.08333 15.5769 3.08333 15.5769 4.25V4.65C15.3102 4.45 15.0102 4.29167 14.6769 4.175C14.3436 4.05833 13.9769 4 13.5769 4C12.4102 4 11.4102 4.41667 10.5769 5.25C9.74357 6.08333 9.3269 7.08333 9.3269 8.25V22.15C8.86024 21.4167 8.43524 20.9083 8.0519 20.625C7.66857 20.3417 7.14357 20.1167 6.4769 19.95L4.9769 19.55C4.81024 19.4833 4.63524 19.4417 4.4519 19.425C4.26857 19.4083 4.0769 19.4 3.8769 19.4C3.01024 19.4 2.24357 19.7333 1.5769 20.4C0.910238 21.0667 0.576904 21.8333 0.576904 22.7C0.576904 23 0.601904 23.2917 0.651904 23.575C0.701904 23.8583 0.776904 24.1333 0.876904 24.4L5.9769 37.75C7.14357 40.85 9.04357 43.3333 11.6769 45.2Z" fill="black"/>
<path d="M34.2958 42.0832L33.8166 39.0644C33.5132 38.9526 33.1937 38.8009 32.8583 38.6092C32.5229 38.4175 32.2274 38.2179 31.9718 38.0103L29.1448 39.304L26.9166 35.3748L29.5041 33.4821C29.4722 33.3384 29.4522 33.1747 29.4442 32.991C29.4362 32.8073 29.4323 32.6436 29.4323 32.4998C29.4323 32.3561 29.4362 32.1924 29.4442 32.0087C29.4522 31.825 29.4722 31.6613 29.5041 31.5175L26.9166 29.6248L29.1448 25.6957L31.9718 26.9894C32.2274 26.7818 32.5229 26.5821 32.8583 26.3905C33.1937 26.1988 33.5132 26.055 33.8166 25.9592L34.2958 22.9165H38.7041L39.1833 25.9353C39.4868 26.0471 39.8102 26.1948 40.1536 26.3785C40.497 26.5622 40.7885 26.7658 41.0281 26.9894L43.8552 25.6957L46.0833 29.6248L43.4958 31.4696C43.5277 31.6294 43.5477 31.8011 43.5557 31.9847C43.5637 32.1684 43.5677 32.3401 43.5677 32.4998C43.5677 32.6596 43.5637 32.8273 43.5557 33.003C43.5477 33.1787 43.5277 33.3464 43.4958 33.5061L46.0833 35.3748L43.8552 39.304L41.0281 38.0103C40.7725 38.2179 40.481 38.4215 40.1536 38.6212C39.8262 38.8208 39.5027 38.9686 39.1833 39.0644L38.7041 42.0832H34.2958ZM36.5 35.6144C37.3625 35.6144 38.0972 35.3109 38.7041 34.704C39.3111 34.0971 39.6145 33.3623 39.6145 32.4998C39.6145 31.6373 39.3111 30.9026 38.7041 30.2957C38.0972 29.6887 37.3625 29.3853 36.5 29.3853C35.6375 29.3853 34.9027 29.6887 34.2958 30.2957C33.6888 30.9026 33.3854 31.6373 33.3854 32.4998C33.3854 33.3623 33.6888 34.0971 34.2958 34.704C34.9027 35.3109 35.6375 35.6144 36.5 35.6144ZM36.5 34.1769C36.0368 34.1769 35.6415 34.0132 35.314 33.6858C34.9866 33.3583 34.8229 32.963 34.8229 32.4998C34.8229 32.0366 34.9866 31.6413 35.314 31.3139C35.6415 30.9865 36.0368 30.8228 36.5 30.8228C36.9632 30.8228 37.3585 30.9865 37.6859 31.3139C38.0133 31.6413 38.177 32.0366 38.177 32.4998C38.177 32.963 38.0133 33.3583 37.6859 33.6858C37.3585 34.0132 36.9632 34.1769 36.5 34.1769ZM35.4458 40.6457H37.5541L37.8895 37.9623C38.4166 37.8346 38.9158 37.6349 39.3869 37.3634C39.8581 37.0919 40.2854 36.7644 40.6687 36.3811L43.2083 37.4832L44.1666 35.7582L41.9145 34.105C41.9784 33.8335 42.0303 33.566 42.0703 33.3024C42.1102 33.0389 42.1302 32.7714 42.1302 32.4998C42.1302 32.2283 42.1142 31.9608 42.0823 31.6972C42.0503 31.4337 41.9944 31.1662 41.9145 30.8946L44.1666 29.2415L43.2083 27.5165L40.6687 28.6186C40.3013 28.2033 39.8861 27.8559 39.4229 27.5764C38.9597 27.2969 38.4486 27.1172 37.8895 27.0373L37.5541 24.354H35.4458L35.1104 27.0373C34.5673 27.1491 34.0602 27.3408 33.589 27.6123C33.1178 27.8839 32.6986 28.2193 32.3312 28.6186L29.7916 27.5165L28.8333 29.2415L31.0854 30.8946C31.0215 31.1662 30.9696 31.4337 30.9296 31.6972C30.8897 31.9608 30.8698 32.2283 30.8698 32.4998C30.8698 32.7714 30.8897 33.0389 30.9296 33.3024C30.9696 33.566 31.0215 33.8335 31.0854 34.105L28.8333 35.7582L29.7916 37.4832L32.3312 36.3811C32.7145 36.7644 33.1418 37.0919 33.613 37.3634C34.0842 37.6349 34.5833 37.8346 35.1104 37.9623L35.4458 40.6457Z" fill="black"/>
<rect x="34.7272" y="38.9854" width="2.80947" height="3.1" transform="rotate(-120.102 34.7272 38.9854)" fill="black"/>
<rect x="30" y="28" width="4" height="9" fill="black"/>
<rect x="28" y="29.7524" width="3.16605" height="4" transform="rotate(-60.3923 28 29.7524)" fill="black"/>
<rect x="40" y="36.5601" width="4.09446" height="4" transform="rotate(-60.3923 40 36.5601)" fill="black"/>
<rect x="38.7272" y="37.9854" width="3.44372" height="4" transform="rotate(-120.102 38.7272 37.9854)" fill="black"/>
<rect x="33" y="37.3071" width="3.44372" height="4" transform="rotate(-73.8132 33 37.3071)" fill="black"/>
<rect x="36.7272" y="39.9854" width="3.44372" height="4" transform="rotate(-120.102 36.7272 39.9854)" fill="black"/>
<rect x="35" y="37.0645" width="2.90484" height="4" transform="rotate(-1.27015 35 37.0645)" fill="black"/>
<rect x="29.3798" y="38.3862" width="2.75101" height="4" transform="rotate(-120.102 29.3798 38.3862)" fill="black"/>
<rect x="41.3798" y="31.3862" width="2.75101" height="4" transform="rotate(-120.102 41.3798 31.3862)" fill="black"/>
<rect x="37.751" y="28.0044" width="2.75101" height="4" transform="rotate(-179.913 37.751 28.0044)" fill="black"/>
<rect x="33.3798" y="31.3862" width="3.44372" height="4" transform="rotate(-120.102 33.3798 31.3862)" fill="black"/>
<rect x="36.7272" y="29.9854" width="3.44372" height="4" transform="rotate(-120.102 36.7272 29.9854)" fill="black"/>
<rect x="37" y="30.1846" width="3.44372" height="4" transform="rotate(-67.6401 37 30.1846)" fill="black"/>
<rect x="39.7272" y="33.9854" width="3.44372" height="4" transform="rotate(-120.102 39.7272 33.9854)" fill="black"/>
<rect x="39.2959" y="36.2354" width="2.58393" height="4.49848" transform="rotate(-120.102 39.2959 36.2354)" fill="black"/>
<circle cx="36.5" cy="32.5" r="4.5" fill="white"/>
</g>
<defs>
<clipPath id="clip0_225_1349">
<rect width="48" height="48" fill="white"/>
</clipPath>
</defs>
</svg>
