<svg width="57" height="57" viewBox="0 0 57 57" fill="none" xmlns="http://www.w3.org/2000/svg">
<g clip-path="url(#clip0_225_1347)">
<path d="M19.7376 54.4092C16.469 54.4092 13.6502 53.5779 11.2812 51.9154C8.9122 50.2529 7.20292 48.0412 6.15336 45.2803L1.5653 33.3904C1.47533 33.1529 1.40786 32.908 1.36288 32.6557C1.3179 32.4033 1.29541 32.1436 1.29541 31.8764C1.29541 31.1045 1.59528 30.4217 2.19503 29.8279C2.79478 29.2342 3.48449 28.9373 4.26416 28.9373C4.44408 28.9373 4.61651 28.9447 4.78144 28.9596C4.94637 28.9744 5.10381 29.0115 5.25374 29.0709L6.60318 29.4271C7.20292 29.5756 7.67522 29.776 8.02008 30.0283C8.36493 30.2807 8.74727 30.7334 9.1671 31.3865V19.0068C9.1671 17.9678 9.54194 17.0771 10.2916 16.335C11.0413 15.5928 11.9409 15.2217 12.9905 15.2217C13.3503 15.2217 13.6802 15.2736 13.9801 15.3775C14.2799 15.4814 14.5498 15.6225 14.7897 15.8006V15.4443C14.7897 14.4053 15.1721 13.5146 15.9367 12.7725C16.7014 12.0303 17.6085 11.6592 18.6581 11.6592C19.6177 11.6592 20.4423 11.9709 21.1321 12.5943C21.8218 13.2178 22.2416 13.9451 22.3915 14.7764C22.5115 14.6279 22.7664 14.5166 23.1562 14.4424C23.546 14.3682 23.9059 14.3311 24.2358 14.3311C25.3753 14.3311 26.2974 14.7541 27.0021 15.6002C27.7068 16.4463 28.0591 17.3889 28.0591 18.4279V20.1646C28.2691 19.9865 28.5389 19.8604 28.8688 19.7861C29.1987 19.7119 29.5285 19.6748 29.8584 19.6748C30.9079 19.6748 31.8076 20.0459 32.5572 20.7881C33.3069 21.5303 33.6818 22.4209 33.6818 23.46V40.6045C33.6818 44.6717 32.3848 47.9893 29.7909 50.5572C27.197 53.1252 23.8459 54.4092 19.7376 54.4092ZM19.7376 51.7373C23.0962 51.7373 25.8101 50.7057 27.8792 48.6424C29.9483 46.5791 30.9829 43.8998 30.9829 40.6045V23.46C30.9829 23.1334 30.878 22.8662 30.668 22.6584C30.4581 22.4506 30.1882 22.3467 29.8584 22.3467C29.5285 22.3467 29.2586 22.4506 29.0487 22.6584C28.8388 22.8662 28.7339 23.1334 28.7339 23.46V33.0342H25.3603V18.1162C25.3603 17.7896 25.2553 17.5225 25.0454 17.3146C24.8355 17.1068 24.5656 17.0029 24.2358 17.0029C23.9059 17.0029 23.636 17.1068 23.4261 17.3146C23.2162 17.5225 23.1112 17.7896 23.1112 18.1162V33.0342H19.7376V15.4443C19.7376 15.1178 19.6327 14.8506 19.4228 14.6428C19.2129 14.435 18.943 14.3311 18.6131 14.3311C18.2833 14.3311 18.0134 14.435 17.8035 14.6428C17.5935 14.8506 17.4886 15.1178 17.4886 15.4443V33.0342H14.115V19.0068C14.115 18.6803 14.0101 18.4131 13.8001 18.2053C13.5902 17.9975 13.3203 17.8936 12.9905 17.8936C12.6606 17.8936 12.3907 17.9975 12.1808 18.2053C11.9709 18.4131 11.866 18.6803 11.866 19.0068V37.9326H9.25706L7.59276 33.7467C7.29288 32.9748 6.91055 32.4775 6.44574 32.2549C5.98094 32.0322 5.37369 31.8318 4.62401 31.6537C4.32413 31.5943 4.12172 31.624 4.01676 31.7428C3.91181 31.8615 3.91931 32.0545 4.03925 32.3217L8.71729 44.3451C9.58692 46.5717 10.9513 48.3604 12.8106 49.7111C14.6698 51.0619 16.9788 51.7373 19.7376 51.7373Z" fill="black"/>
<mask id="path-2-inside-1_225_1347" fill="white">
<path d="M42.0556 26.5644V19.5747H35.0741V16.3524L42.0556 16.3521V9.37061H45.2778V16.3521L51.9908 16.4118V19.5747H45.2778V26.5561L42.0556 26.5644Z"/>
</mask>
<path d="M42.0556 26.5644V19.5747H35.0741V16.3524L42.0556 16.3521V9.37061H45.2778V16.3521L51.9908 16.4118V19.5747H45.2778V26.5561L42.0556 26.5644Z" fill="black"/>
<path d="M42.0556 26.5644H38.0556V30.5746L42.0658 30.5644L42.0556 26.5644ZM42.0556 19.5747H46.0556V15.5747H42.0556V19.5747ZM35.0741 19.5747H31.0741V23.5747H35.0741V19.5747ZM35.0741 16.3524L35.0739 12.3524L31.0741 12.3526V16.3524H35.0741ZM42.0556 16.3521L42.0558 20.3521L46.0556 20.3519V16.3521H42.0556ZM42.0556 9.37061V5.37061H38.0556V9.37061H42.0556ZM45.2778 9.37061H49.2778V5.37061H45.2778V9.37061ZM45.2778 16.3521H41.2778V20.3167L45.2422 20.3519L45.2778 16.3521ZM51.9908 16.4118H55.9908V12.4472L52.0264 12.412L51.9908 16.4118ZM51.9908 19.5747V23.5747H55.9908V19.5747H51.9908ZM45.2778 19.5747V15.5747H41.2778V19.5747H45.2778ZM45.2778 26.5561L45.288 30.5561L49.2778 30.5459V26.5561H45.2778ZM46.0556 26.5644V19.5747H38.0556V26.5644H46.0556ZM42.0556 15.5747H35.0741V23.5747H42.0556V15.5747ZM39.0741 19.5747V16.3524H31.0741V19.5747H39.0741ZM35.0743 20.3524L42.0558 20.3521L42.0554 12.3521L35.0739 12.3524L35.0743 20.3524ZM46.0556 16.3521V9.37061H38.0556V16.3521H46.0556ZM42.0556 13.3706H45.2778V5.37061H42.0556V13.3706ZM41.2778 9.37061V16.3521H49.2778V9.37061H41.2778ZM45.2422 20.3519L51.9552 20.4117L52.0264 12.412L45.3134 12.3522L45.2422 20.3519ZM47.9908 16.4118V19.5747H55.9908V16.4118H47.9908ZM51.9908 15.5747H45.2778V23.5747H51.9908V15.5747ZM41.2778 19.5747V26.5561H49.2778V19.5747H41.2778ZM45.2676 22.5561L42.0453 22.5644L42.0658 30.5644L45.288 30.5561L45.2676 22.5561Z" fill="black" mask="url(#path-2-inside-1_225_1347)"/>
</g>
<defs>
<clipPath id="clip0_225_1347">
<rect width="57" height="57" fill="white"/>
</clipPath>
</defs>
</svg>
