<svg width="48" height="48" viewBox="0 0 48 48" fill="none" xmlns="http://www.w3.org/2000/svg">
<path fill-rule="evenodd" clip-rule="evenodd" d="M21.1484 36.35H8.20469V33.65H20.2703C20.4652 34.5913 20.7619 35.4953 21.1484 36.35ZM25.0674 41.3H3.71875V10.7H18.7172V19.07H27.2812V19.3222C28.1386 18.9015 29.0492 18.5725 30 18.3479V17.855L20.0766 8H3.71875C2.99375 8 2.35938 8.27 1.81563 8.81C1.27188 9.35 1 9.98 1 10.7V41.3C1 42.02 1.27188 42.65 1.81563 43.19C2.35938 43.73 2.99375 44 3.71875 44H27.2812C27.921 44 28.4901 43.7898 28.9887 43.3694C27.5567 42.9053 26.2335 42.1995 25.0674 41.3ZM20.9963 26H8.20469V28.7H20.2028C20.3704 27.7612 20.6388 26.8574 20.9963 26Z" fill="black"/>
<path d="M33.2958 40.0832L32.8166 37.0644C32.5132 36.9526 32.1937 36.8009 31.8583 36.6092C31.5229 36.4175 31.2274 36.2179 30.9718 36.0103L28.1448 37.304L25.9166 33.3748L28.5041 31.4821C28.4722 31.3384 28.4522 31.1747 28.4442 30.991C28.4362 30.8073 28.4323 30.6436 28.4323 30.4998C28.4323 30.3561 28.4362 30.1924 28.4442 30.0087C28.4522 29.825 28.4722 29.6613 28.5041 29.5175L25.9166 27.6248L28.1448 23.6957L30.9718 24.9894C31.2274 24.7818 31.5229 24.5821 31.8583 24.3905C32.1937 24.1988 32.5132 24.055 32.8166 23.9592L33.2958 20.9165H37.7041L38.1833 23.9353C38.4868 24.0471 38.8102 24.1948 39.1536 24.3785C39.497 24.5622 39.7885 24.7658 40.0281 24.9894L42.8552 23.6957L45.0833 27.6248L42.4958 29.4696C42.5277 29.6294 42.5477 29.8011 42.5557 29.9847C42.5637 30.1684 42.5677 30.3401 42.5677 30.4998C42.5677 30.6596 42.5637 30.8273 42.5557 31.003C42.5477 31.1787 42.5277 31.3464 42.4958 31.5061L45.0833 33.3748L42.8552 37.304L40.0281 36.0103C39.7725 36.2179 39.481 36.4215 39.1536 36.6212C38.8262 36.8208 38.5027 36.9686 38.1833 37.0644L37.7041 40.0832H33.2958ZM35.5 33.6144C36.3625 33.6144 37.0972 33.3109 37.7041 32.704C38.3111 32.0971 38.6145 31.3623 38.6145 30.4998C38.6145 29.6373 38.3111 28.9026 37.7041 28.2957C37.0972 27.6887 36.3625 27.3853 35.5 27.3853C34.6375 27.3853 33.9027 27.6887 33.2958 28.2957C32.6888 28.9026 32.3854 29.6373 32.3854 30.4998C32.3854 31.3623 32.6888 32.0971 33.2958 32.704C33.9027 33.3109 34.6375 33.6144 35.5 33.6144ZM35.5 32.1769C35.0368 32.1769 34.6415 32.0132 34.314 31.6858C33.9866 31.3583 33.8229 30.963 33.8229 30.4998C33.8229 30.0366 33.9866 29.6413 34.314 29.3139C34.6415 28.9865 35.0368 28.8228 35.5 28.8228C35.9632 28.8228 36.3585 28.9865 36.6859 29.3139C37.0133 29.6413 37.177 30.0366 37.177 30.4998C37.177 30.963 37.0133 31.3583 36.6859 31.6858C36.3585 32.0132 35.9632 32.1769 35.5 32.1769ZM34.4458 38.6457H36.5541L36.8895 35.9623C37.4166 35.8346 37.9158 35.6349 38.3869 35.3634C38.8581 35.0919 39.2854 34.7644 39.6687 34.3811L42.2083 35.4832L43.1666 33.7582L40.9145 32.105C40.9784 31.8335 41.0303 31.566 41.0703 31.3024C41.1102 31.0389 41.1302 30.7714 41.1302 30.4998C41.1302 30.2283 41.1142 29.9608 41.0823 29.6972C41.0503 29.4337 40.9944 29.1662 40.9145 28.8946L43.1666 27.2415L42.2083 25.5165L39.6687 26.6186C39.3013 26.2033 38.8861 25.8559 38.4229 25.5764C37.9597 25.2969 37.4486 25.1172 36.8895 25.0373L36.5541 22.354H34.4458L34.1104 25.0373C33.5673 25.1491 33.0602 25.3408 32.589 25.6123C32.1178 25.8839 31.6986 26.2193 31.3312 26.6186L28.7916 25.5165L27.8333 27.2415L30.0854 28.8946C30.0215 29.1662 29.9696 29.4337 29.9296 29.6972C29.8897 29.9608 29.8698 30.2283 29.8698 30.4998C29.8698 30.7714 29.8897 31.0389 29.9296 31.3024C29.9696 31.566 30.0215 31.8335 30.0854 32.105L27.8333 33.7582L28.7916 35.4832L31.3312 34.3811C31.7145 34.7644 32.1418 35.0919 32.613 35.3634C33.0842 35.6349 33.5833 35.8346 34.1104 35.9623L34.4458 38.6457Z" fill="black"/>
<rect x="33.7272" y="36.9854" width="2.80947" height="3.1" transform="rotate(-120.102 33.7272 36.9854)" fill="black"/>
<rect x="29" y="26" width="4" height="9" fill="black"/>
<rect x="27" y="27.7524" width="3.16605" height="4" transform="rotate(-60.3923 27 27.7524)" fill="black"/>
<rect x="39" y="34.5601" width="4.09446" height="4" transform="rotate(-60.3923 39 34.5601)" fill="black"/>
<rect x="37.7272" y="35.9854" width="3.44372" height="4" transform="rotate(-120.102 37.7272 35.9854)" fill="black"/>
<rect x="32" y="35.3071" width="3.44372" height="4" transform="rotate(-73.8132 32 35.3071)" fill="black"/>
<rect x="35.7272" y="37.9854" width="3.44372" height="4" transform="rotate(-120.102 35.7272 37.9854)" fill="black"/>
<rect x="34" y="35.0645" width="2.90484" height="4" transform="rotate(-1.27015 34 35.0645)" fill="black"/>
<rect x="28.3798" y="36.3862" width="2.75101" height="4" transform="rotate(-120.102 28.3798 36.3862)" fill="black"/>
<rect x="40.3798" y="29.3862" width="2.75101" height="4" transform="rotate(-120.102 40.3798 29.3862)" fill="black"/>
<rect x="36.751" y="26.0044" width="2.75101" height="4" transform="rotate(-179.913 36.751 26.0044)" fill="black"/>
<rect x="32.3798" y="29.3862" width="3.44372" height="4" transform="rotate(-120.102 32.3798 29.3862)" fill="black"/>
<rect x="35.7272" y="27.9854" width="3.44372" height="4" transform="rotate(-120.102 35.7272 27.9854)" fill="black"/>
<rect x="36" y="28.1846" width="3.44372" height="4" transform="rotate(-67.6401 36 28.1846)" fill="black"/>
<rect x="38.7272" y="31.9854" width="3.44372" height="4" transform="rotate(-120.102 38.7272 31.9854)" fill="black"/>
<rect x="38.2959" y="34.2354" width="2.58393" height="4.49848" transform="rotate(-120.102 38.2959 34.2354)" fill="black"/>
<circle cx="35.5" cy="30.5" r="4.5" fill="white"/>
</svg>
