<svg width="48" height="48" viewBox="0 0 48 48" fill="none" xmlns="http://www.w3.org/2000/svg">
<g clip-path="url(#clip0_220_1290)">
<path d="M8.20469 36.35H22.7953V33.65H8.20469V36.35ZM8.20469 28.7H22.7953V26H8.20469V28.7ZM3.71875 44C2.99375 44 2.35938 43.73 1.81563 43.19C1.27188 42.65 1 42.02 1 41.3V10.7C1 9.98 1.27188 9.35 1.81563 8.81C2.35938 8.27 2.99375 8 3.71875 8H20.0766L30 17.855V41.3C30 42.02 29.7281 42.65 29.1844 43.19C28.6406 43.73 28.0063 44 27.2813 44H3.71875ZM18.7172 19.07V10.7H3.71875V41.3H27.2813V19.07H18.7172Z" fill="black"/>
<mask id="path-2-inside-1_220_1290" fill="white">
<path d="M36.5 21.008V14.5003H30V11.5003L36.5 11.5V5H39.5V11.5L45.75 11.5556V14.5003H39.5V21.0003L36.5 21.008Z"/>
</mask>
<path d="M36.5 21.008V14.5003H30V11.5003L36.5 11.5V5H39.5V11.5L45.75 11.5556V14.5003H39.5V21.0003L36.5 21.008Z" fill="black"/>
<path d="M36.5 21.008H32.5V25.0182L36.5102 25.008L36.5 21.008ZM36.5 14.5003H40.5V10.5003H36.5V14.5003ZM30 14.5003H26V18.5003H30V14.5003ZM30 11.5003L29.9998 7.50032L26 7.50052V11.5003H30ZM36.5 11.5L36.5002 15.5L40.5 15.4998V11.5H36.5ZM36.5 5V1H32.5V5H36.5ZM39.5 5H43.5V1H39.5V5ZM39.5 11.5H35.5V15.4646L39.4644 15.4998L39.5 11.5ZM45.75 11.5556H49.75V7.59103L45.7856 7.55576L45.75 11.5556ZM45.75 14.5003V18.5003H49.75V14.5003H45.75ZM39.5 14.5003V10.5003H35.5V14.5003H39.5ZM39.5 21.0003L39.5102 25.0003L43.5 24.9901V21.0003H39.5ZM40.5 21.008V14.5003H32.5V21.008H40.5ZM36.5 10.5003H30V18.5003H36.5V10.5003ZM34 14.5003V11.5003H26V14.5003H34ZM30.0002 15.5003L36.5002 15.5L36.4998 7.5L29.9998 7.50032L30.0002 15.5003ZM40.5 11.5V5H32.5V11.5H40.5ZM36.5 9H39.5V1H36.5V9ZM35.5 5V11.5H43.5V5H35.5ZM39.4644 15.4998L45.7144 15.5554L45.7856 7.55576L39.5356 7.50016L39.4644 15.4998ZM41.75 11.5556V14.5003H49.75V11.5556H41.75ZM45.75 10.5003H39.5V18.5003H45.75V10.5003ZM35.5 14.5003V21.0003H43.5V14.5003H35.5ZM39.4898 17.0003L36.4898 17.008L36.5102 25.008L39.5102 25.0003L39.4898 17.0003Z" fill="black" mask="url(#path-2-inside-1_220_1290)"/>
</g>
<defs>
<clipPath id="clip0_220_1290">
<rect width="48" height="48" fill="white"/>
</clipPath>
</defs>
</svg>
