<svg width="48" height="48" viewBox="0 0 48 48" fill="none" xmlns="http://www.w3.org/2000/svg">
<g clip-path="url(#clip0_225_1416)">
<path fill-rule="evenodd" clip-rule="evenodd" d="M43.979 22.5167C43.8215 25.709 42.7785 28.2618 40.85 30.175C38.75 32.2583 35.9667 33.3 32.5 33.3H28.75C28.15 33.3 27.6333 33.5333 27.2 34C26.7667 34.4667 26.55 34.9833 26.55 35.55C26.55 36.45 26.7917 37.2167 27.275 37.85C27.7583 38.4833 28 39.2167 28 40.05C28 41.3167 27.65 42.2917 26.95 42.975C26.25 43.6583 25.2667 44 24 44C21.2667 44 18.6833 43.475 16.25 42.425C13.8167 41.375 11.6917 39.9417 9.875 38.125C8.05833 36.3083 6.625 34.1833 5.575 31.75C4.525 29.3167 4 26.7333 4 24C4 21.1667 4.53333 18.5333 5.6 16.1C6.66667 13.6667 8.125 11.55 9.975 9.75C11.825 7.95 13.9917 6.54167 16.475 5.525C18.9583 4.50833 21.6167 4 24.45 4C25.3781 4 26.2897 4.05487 27.1847 4.1646C26.4209 5.01765 25.7725 5.97623 25.2642 7.01578C24.9948 7.00526 24.7234 7 24.45 7C19.5833 7 15.4583 8.64167 12.075 11.925C8.69167 15.2083 7 19.2333 7 24C7 28.7 8.65833 32.7083 11.975 36.025C15.2917 39.3417 19.3 41 24 41C24.3667 41 24.625 40.925 24.775 40.775C24.925 40.625 25 40.3833 25 40.05C25 39.5833 24.7583 39.15 24.275 38.75C23.7917 38.35 23.55 37.4667 23.55 36.1C23.55 34.5667 24.05 33.2167 25.05 32.05C26.05 30.8833 27.3167 30.3 28.85 30.3H32.5C35.0333 30.3 37.0833 29.5583 38.65 28.075C39.6866 27.0935 40.3803 25.8238 40.731 24.2658C41.9051 23.8435 42.9978 23.2505 43.979 22.5167ZM34.4849 24.8384C35.1409 24.9447 35.814 25 36.5 25C36.6974 25 36.8936 24.9954 37.0888 24.9864C36.7273 25.1955 36.3311 25.3 35.9 25.3C35.377 25.3 34.9053 25.1461 34.4849 24.8384ZM14.1 24.55C13.6 25.05 13.0167 25.3 12.35 25.3C11.6833 25.3 11.1 25.05 10.6 24.55C10.1 24.05 9.85 23.4667 9.85 22.8C9.85 22.1333 10.1 21.55 10.6 21.05C11.1 20.55 11.6833 20.3 12.35 20.3C13.0167 20.3 13.6 20.55 14.1 21.05C14.6 21.55 14.85 22.1333 14.85 22.8C14.85 23.4667 14.6 24.05 14.1 24.55ZM20.4 16.05C19.9 16.55 19.3167 16.8 18.65 16.8C17.9833 16.8 17.4 16.55 16.9 16.05C16.4 15.55 16.15 14.9667 16.15 14.3C16.15 13.6333 16.4 13.05 16.9 12.55C17.4 12.05 17.9833 11.8 18.65 11.8C19.3167 11.8 19.9 12.05 20.4 12.55C20.9 13.05 21.15 13.6333 21.15 14.3C21.15 14.9667 20.9 15.55 20.4 16.05Z" fill="black"/>
<mask id="path-2-inside-1_225_1416" fill="white">
<path d="M35.5 21.008V14.5003H29V11.5003L35.5 11.5V5H38.5V11.5L44.75 11.5556V14.5003H38.5V21.0003L35.5 21.008Z"/>
</mask>
<path d="M35.5 21.008V14.5003H29V11.5003L35.5 11.5V5H38.5V11.5L44.75 11.5556V14.5003H38.5V21.0003L35.5 21.008Z" fill="black"/>
<path d="M35.5 21.008H31.5V25.0182L35.5102 25.008L35.5 21.008ZM35.5 14.5003H39.5V10.5003H35.5V14.5003ZM29 14.5003H25V18.5003H29V14.5003ZM29 11.5003L28.9998 7.50032L25 7.50052V11.5003H29ZM35.5 11.5L35.5002 15.5L39.5 15.4998V11.5H35.5ZM35.5 5V1H31.5V5H35.5ZM38.5 5H42.5V1H38.5V5ZM38.5 11.5H34.5V15.4646L38.4644 15.4998L38.5 11.5ZM44.75 11.5556H48.75V7.59103L44.7856 7.55576L44.75 11.5556ZM44.75 14.5003V18.5003H48.75V14.5003H44.75ZM38.5 14.5003V10.5003H34.5V14.5003H38.5ZM38.5 21.0003L38.5102 25.0003L42.5 24.9901V21.0003H38.5ZM39.5 21.008V14.5003H31.5V21.008H39.5ZM35.5 10.5003H29V18.5003H35.5V10.5003ZM33 14.5003V11.5003H25V14.5003H33ZM29.0002 15.5003L35.5002 15.5L35.4998 7.5L28.9998 7.50032L29.0002 15.5003ZM39.5 11.5V5H31.5V11.5H39.5ZM35.5 9H38.5V1H35.5V9ZM34.5 5V11.5H42.5V5H34.5ZM38.4644 15.4998L44.7144 15.5554L44.7856 7.55576L38.5356 7.50016L38.4644 15.4998ZM40.75 11.5556V14.5003H48.75V11.5556H40.75ZM44.75 10.5003H38.5V18.5003H44.75V10.5003ZM34.5 14.5003V21.0003H42.5V14.5003H34.5ZM38.4898 17.0003L35.4898 17.008L35.5102 25.008L38.5102 25.0003L38.4898 17.0003Z" fill="black" mask="url(#path-2-inside-1_225_1416)"/>
</g>
<defs>
<clipPath id="clip0_225_1416">
<rect width="48" height="48" fill="white"/>
</clipPath>
</defs>
</svg>
