<svg width="48" height="48" viewBox="0 0 48 48" fill="none" xmlns="http://www.w3.org/2000/svg">
<path fill-rule="evenodd" clip-rule="evenodd" d="M23.4936 43.994C20.9471 43.9329 18.5326 43.4099 16.25 42.425C13.8167 41.375 11.6917 39.9417 9.875 38.125C8.05833 36.3083 6.625 34.1833 5.575 31.75C4.525 29.3167 4 26.7333 4 24C4 21.1667 4.53333 18.5333 5.6 16.1C6.66667 13.6667 8.125 11.55 9.975 9.75C11.825 7.95 13.9917 6.54167 16.475 5.525C18.9583 4.50833 21.6167 4 24.45 4C27.0833 4 29.5833 4.44167 31.95 5.325C34.3167 6.20833 36.3917 7.43333 38.175 9C39.9583 10.5667 41.375 12.425 42.425 14.575C43.475 16.725 44 19.0833 44 21.65C44 22.2572 43.9701 22.8427 43.9104 23.4067C43.0434 22.5127 42.0623 21.73 40.9906 21.0821C40.8522 16.9443 39.1887 13.5919 36 11.025C32.6667 8.34167 28.8167 7 24.45 7C19.5833 7 15.4583 8.64167 12.075 11.925C8.69167 15.2083 7 19.2333 7 24C7 28.7 8.65833 32.7083 11.975 36.025C14.5472 38.5972 17.5353 40.1719 20.9394 40.7493C21.6341 41.9504 22.4962 43.0425 23.4936 43.994ZM12.35 25.3C13.0167 25.3 13.6 25.05 14.1 24.55C14.6 24.05 14.85 23.4667 14.85 22.8C14.85 22.1333 14.6 21.55 14.1 21.05C13.6 20.55 13.0167 20.3 12.35 20.3C11.6833 20.3 11.1 20.55 10.6 21.05C10.1 21.55 9.85 22.1333 9.85 22.8C9.85 23.4667 10.1 24.05 10.6 24.55C11.1 25.05 11.6833 25.3 12.35 25.3ZM18.65 16.8C19.3167 16.8 19.9 16.55 20.4 16.05C20.9 15.55 21.15 14.9667 21.15 14.3C21.15 13.6333 20.9 13.05 20.4 12.55C19.9 12.05 19.3167 11.8 18.65 11.8C17.9833 11.8 17.4 12.05 16.9 12.55C16.4 13.05 16.15 13.6333 16.15 14.3C16.15 14.9667 16.4 15.55 16.9 16.05C17.4 16.55 17.9833 16.8 18.65 16.8ZM29.35 16.8C30.0167 16.8 30.6 16.55 31.1 16.05C31.6 15.55 31.85 14.9667 31.85 14.3C31.85 13.6333 31.6 13.05 31.1 12.55C30.6 12.05 30.0167 11.8 29.35 11.8C28.6833 11.8 28.1 12.05 27.6 12.55C27.1 13.05 26.85 13.6333 26.85 14.3C26.85 14.9667 27.1 15.55 27.6 16.05C28.1 16.55 28.6833 16.8 29.35 16.8Z" fill="black"/>
<path d="M30.2958 42.0832L29.8166 39.0644C29.5132 38.9526 29.1937 38.8009 28.8583 38.6092C28.5229 38.4175 28.2274 38.2179 27.9718 38.0103L25.1448 39.304L22.9166 35.3748L25.5041 33.4821C25.4722 33.3384 25.4522 33.1747 25.4442 32.991C25.4362 32.8073 25.4323 32.6436 25.4323 32.4998C25.4323 32.3561 25.4362 32.1924 25.4442 32.0087C25.4522 31.825 25.4722 31.6613 25.5041 31.5175L22.9166 29.6248L25.1448 25.6957L27.9718 26.9894C28.2274 26.7818 28.5229 26.5821 28.8583 26.3905C29.1937 26.1988 29.5132 26.055 29.8166 25.9592L30.2958 22.9165H34.7041L35.1833 25.9353C35.4868 26.0471 35.8102 26.1948 36.1536 26.3785C36.497 26.5622 36.7885 26.7658 37.0281 26.9894L39.8552 25.6957L42.0833 29.6248L39.4958 31.4696C39.5277 31.6294 39.5477 31.8011 39.5557 31.9847C39.5637 32.1684 39.5677 32.3401 39.5677 32.4998C39.5677 32.6596 39.5637 32.8273 39.5557 33.003C39.5477 33.1787 39.5277 33.3464 39.4958 33.5061L42.0833 35.3748L39.8552 39.304L37.0281 38.0103C36.7725 38.2179 36.481 38.4215 36.1536 38.6212C35.8262 38.8208 35.5027 38.9686 35.1833 39.0644L34.7041 42.0832H30.2958ZM32.5 35.6144C33.3625 35.6144 34.0972 35.3109 34.7041 34.704C35.3111 34.0971 35.6145 33.3623 35.6145 32.4998C35.6145 31.6373 35.3111 30.9026 34.7041 30.2957C34.0972 29.6887 33.3625 29.3853 32.5 29.3853C31.6375 29.3853 30.9027 29.6887 30.2958 30.2957C29.6888 30.9026 29.3854 31.6373 29.3854 32.4998C29.3854 33.3623 29.6888 34.0971 30.2958 34.704C30.9027 35.3109 31.6375 35.6144 32.5 35.6144ZM32.5 34.1769C32.0368 34.1769 31.6415 34.0132 31.314 33.6858C30.9866 33.3583 30.8229 32.963 30.8229 32.4998C30.8229 32.0366 30.9866 31.6413 31.314 31.3139C31.6415 30.9865 32.0368 30.8228 32.5 30.8228C32.9632 30.8228 33.3585 30.9865 33.6859 31.3139C34.0133 31.6413 34.177 32.0366 34.177 32.4998C34.177 32.963 34.0133 33.3583 33.6859 33.6858C33.3585 34.0132 32.9632 34.1769 32.5 34.1769ZM31.4458 40.6457H33.5541L33.8895 37.9623C34.4166 37.8346 34.9158 37.6349 35.3869 37.3634C35.8581 37.0919 36.2854 36.7644 36.6687 36.3811L39.2083 37.4832L40.1666 35.7582L37.9145 34.105C37.9784 33.8335 38.0303 33.566 38.0703 33.3024C38.1102 33.0389 38.1302 32.7714 38.1302 32.4998C38.1302 32.2283 38.1142 31.9608 38.0823 31.6972C38.0503 31.4337 37.9944 31.1662 37.9145 30.8946L40.1666 29.2415L39.2083 27.5165L36.6687 28.6186C36.3013 28.2033 35.8861 27.8559 35.4229 27.5764C34.9597 27.2969 34.4486 27.1172 33.8895 27.0373L33.5541 24.354H31.4458L31.1104 27.0373C30.5673 27.1491 30.0602 27.3408 29.589 27.6123C29.1178 27.8839 28.6986 28.2193 28.3312 28.6186L25.7916 27.5165L24.8333 29.2415L27.0854 30.8946C27.0215 31.1662 26.9696 31.4337 26.9296 31.6972C26.8897 31.9608 26.8698 32.2283 26.8698 32.4998C26.8698 32.7714 26.8897 33.0389 26.9296 33.3024C26.9696 33.566 27.0215 33.8335 27.0854 34.105L24.8333 35.7582L25.7916 37.4832L28.3312 36.3811C28.7145 36.7644 29.1418 37.0919 29.613 37.3634C30.0842 37.6349 30.5833 37.8346 31.1104 37.9623L31.4458 40.6457Z" fill="black"/>
<rect x="30.7272" y="38.9854" width="2.80947" height="3.1" transform="rotate(-120.102 30.7272 38.9854)" fill="black"/>
<rect x="26" y="28" width="4" height="9" fill="black"/>
<rect x="24" y="29.7524" width="3.16605" height="4" transform="rotate(-60.3923 24 29.7524)" fill="black"/>
<rect x="36" y="36.5601" width="4.09446" height="4" transform="rotate(-60.3923 36 36.5601)" fill="black"/>
<rect x="34.7272" y="37.9854" width="3.44372" height="4" transform="rotate(-120.102 34.7272 37.9854)" fill="black"/>
<rect x="29" y="37.3071" width="3.44372" height="4" transform="rotate(-73.8132 29 37.3071)" fill="black"/>
<rect x="32.7272" y="39.9854" width="3.44372" height="4" transform="rotate(-120.102 32.7272 39.9854)" fill="black"/>
<rect x="31" y="37.0645" width="2.90484" height="4" transform="rotate(-1.27015 31 37.0645)" fill="black"/>
<rect x="25.3798" y="38.3862" width="2.75101" height="4" transform="rotate(-120.102 25.3798 38.3862)" fill="black"/>
<rect x="37.3798" y="31.3862" width="2.75101" height="4" transform="rotate(-120.102 37.3798 31.3862)" fill="black"/>
<rect x="33.751" y="28.0044" width="2.75101" height="4" transform="rotate(-179.913 33.751 28.0044)" fill="black"/>
<rect x="29.3798" y="31.3862" width="3.44372" height="4" transform="rotate(-120.102 29.3798 31.3862)" fill="black"/>
<rect x="32.7272" y="29.9854" width="3.44372" height="4" transform="rotate(-120.102 32.7272 29.9854)" fill="black"/>
<rect x="33" y="30.1846" width="3.44372" height="4" transform="rotate(-67.6401 33 30.1846)" fill="black"/>
<rect x="35.7272" y="33.9854" width="3.44372" height="4" transform="rotate(-120.102 35.7272 33.9854)" fill="black"/>
<rect x="35.2959" y="36.2354" width="2.58393" height="4.49848" transform="rotate(-120.102 35.2959 36.2354)" fill="black"/>
<circle cx="32.5" cy="32.5" r="4.5" fill="white"/>
</svg>
