<svg width="48" height="48" viewBox="0 0 48 48" fill="none" xmlns="http://www.w3.org/2000/svg">
<path fill-rule="evenodd" clip-rule="evenodd" d="M11.8 42.8894C12.5 43.5965 13.3465 43.95 14.3394 43.95C15.3323 43.95 16.1823 43.6 16.8894 42.9C17.5965 42.2 17.95 41.3535 17.95 40.3606C17.95 39.3677 17.6 38.5177 16.9 37.8106C16.2 37.1035 15.3536 36.75 14.3606 36.75C13.3677 36.75 12.5177 37.1 11.8106 37.8C11.1036 38.5 10.75 39.3465 10.75 40.3394C10.75 41.3323 11.1 42.1823 11.8 42.8894ZM17.25 22.35L11.75 10.95H37.9001L31.65 22.35H17.25ZM39.7037 7.95H10.25L8.40005 4H2.55005V7H6.45005L14.05 23.1L10.85 29C10.2167 30.1667 10.2084 31.2167 10.825 32.15C11.4417 33.0833 12.45 33.55 13.85 33.55H25.1646C25.345 32.4939 25.6694 31.4869 26.1169 30.55H13.4L16.2 25.35H31.0889C31.9567 24.8864 32.8909 24.5309 33.8736 24.3013C34.1928 24.0008 34.4682 23.6504 34.7001 23.25L41.4501 11.1C41.8501 10.4 41.8504 9.7 41.451 9C41.0516 8.3 40.4692 7.95 39.7037 7.95Z" fill="black"/>
<path d="M34.2958 45.0832L33.8166 42.0644C33.5132 41.9526 33.1937 41.8009 32.8583 41.6092C32.5229 41.4175 32.2274 41.2179 31.9718 41.0103L29.1448 42.304L26.9166 38.3748L29.5041 36.4821C29.4722 36.3384 29.4522 36.1747 29.4442 35.991C29.4362 35.8073 29.4323 35.6436 29.4323 35.4998C29.4323 35.3561 29.4362 35.1924 29.4442 35.0087C29.4522 34.825 29.4722 34.6613 29.5041 34.5175L26.9166 32.6248L29.1448 28.6957L31.9718 29.9894C32.2274 29.7818 32.5229 29.5821 32.8583 29.3905C33.1937 29.1988 33.5132 29.055 33.8166 28.9592L34.2958 25.9165H38.7041L39.1833 28.9353C39.4868 29.0471 39.8102 29.1948 40.1536 29.3785C40.497 29.5622 40.7885 29.7658 41.0281 29.9894L43.8552 28.6957L46.0833 32.6248L43.4958 34.4696C43.5277 34.6294 43.5477 34.8011 43.5557 34.9847C43.5637 35.1684 43.5677 35.3401 43.5677 35.4998C43.5677 35.6596 43.5637 35.8273 43.5557 36.003C43.5477 36.1787 43.5277 36.3464 43.4958 36.5061L46.0833 38.3748L43.8552 42.304L41.0281 41.0103C40.7725 41.2179 40.481 41.4215 40.1536 41.6212C39.8262 41.8208 39.5027 41.9686 39.1833 42.0644L38.7041 45.0832H34.2958ZM36.5 38.6144C37.3625 38.6144 38.0972 38.3109 38.7041 37.704C39.3111 37.0971 39.6145 36.3623 39.6145 35.4998C39.6145 34.6373 39.3111 33.9026 38.7041 33.2957C38.0972 32.6887 37.3625 32.3853 36.5 32.3853C35.6375 32.3853 34.9027 32.6887 34.2958 33.2957C33.6888 33.9026 33.3854 34.6373 33.3854 35.4998C33.3854 36.3623 33.6888 37.0971 34.2958 37.704C34.9027 38.3109 35.6375 38.6144 36.5 38.6144ZM36.5 37.1769C36.0368 37.1769 35.6415 37.0132 35.314 36.6858C34.9866 36.3583 34.8229 35.963 34.8229 35.4998C34.8229 35.0366 34.9866 34.6413 35.314 34.3139C35.6415 33.9865 36.0368 33.8228 36.5 33.8228C36.9632 33.8228 37.3585 33.9865 37.6859 34.3139C38.0133 34.6413 38.177 35.0366 38.177 35.4998C38.177 35.963 38.0133 36.3583 37.6859 36.6858C37.3585 37.0132 36.9632 37.1769 36.5 37.1769ZM35.4458 43.6457H37.5541L37.8895 40.9623C38.4166 40.8346 38.9158 40.6349 39.3869 40.3634C39.8581 40.0919 40.2854 39.7644 40.6687 39.3811L43.2083 40.4832L44.1666 38.7582L41.9145 37.105C41.9784 36.8335 42.0303 36.566 42.0703 36.3024C42.1102 36.0389 42.1302 35.7714 42.1302 35.4998C42.1302 35.2283 42.1142 34.9608 42.0823 34.6972C42.0503 34.4337 41.9944 34.1662 41.9145 33.8946L44.1666 32.2415L43.2083 30.5165L40.6687 31.6186C40.3013 31.2033 39.8861 30.8559 39.4229 30.5764C38.9597 30.2969 38.4486 30.1172 37.8895 30.0373L37.5541 27.354H35.4458L35.1104 30.0373C34.5673 30.1491 34.0602 30.3408 33.589 30.6123C33.1178 30.8839 32.6986 31.2193 32.3312 31.6186L29.7916 30.5165L28.8333 32.2415L31.0854 33.8946C31.0215 34.1662 30.9696 34.4337 30.9296 34.6972C30.8897 34.9608 30.8698 35.2283 30.8698 35.4998C30.8698 35.7714 30.8897 36.0389 30.9296 36.3024C30.9696 36.566 31.0215 36.8335 31.0854 37.105L28.8333 38.7582L29.7916 40.4832L32.3312 39.3811C32.7145 39.7644 33.1418 40.0919 33.613 40.3634C34.0842 40.6349 34.5833 40.8346 35.1104 40.9623L35.4458 43.6457Z" fill="black"/>
<rect x="34.7272" y="41.9854" width="2.80947" height="3.1" transform="rotate(-120.102 34.7272 41.9854)" fill="black"/>
<rect x="30" y="31" width="4" height="9" fill="black"/>
<rect x="28" y="32.7524" width="3.16605" height="4" transform="rotate(-60.3923 28 32.7524)" fill="black"/>
<rect x="40" y="39.5601" width="4.09446" height="4" transform="rotate(-60.3923 40 39.5601)" fill="black"/>
<rect x="38.7272" y="40.9854" width="3.44372" height="4" transform="rotate(-120.102 38.7272 40.9854)" fill="black"/>
<rect x="33" y="40.3071" width="3.44372" height="4" transform="rotate(-73.8132 33 40.3071)" fill="black"/>
<rect x="36.7272" y="42.9854" width="3.44372" height="4" transform="rotate(-120.102 36.7272 42.9854)" fill="black"/>
<rect x="35" y="40.0645" width="2.90484" height="4" transform="rotate(-1.27015 35 40.0645)" fill="black"/>
<rect x="29.3798" y="41.3862" width="2.75101" height="4" transform="rotate(-120.102 29.3798 41.3862)" fill="black"/>
<rect x="41.3798" y="34.3862" width="2.75101" height="4" transform="rotate(-120.102 41.3798 34.3862)" fill="black"/>
<rect x="37.751" y="31.0044" width="2.75101" height="4" transform="rotate(-179.913 37.751 31.0044)" fill="black"/>
<rect x="33.3798" y="34.3862" width="3.44372" height="4" transform="rotate(-120.102 33.3798 34.3862)" fill="black"/>
<rect x="36.7272" y="32.9854" width="3.44372" height="4" transform="rotate(-120.102 36.7272 32.9854)" fill="black"/>
<rect x="37" y="33.1846" width="3.44372" height="4" transform="rotate(-67.6401 37 33.1846)" fill="black"/>
<rect x="39.7272" y="36.9854" width="3.44372" height="4" transform="rotate(-120.102 39.7272 36.9854)" fill="black"/>
<rect x="39.2959" y="39.2354" width="2.58393" height="4.49848" transform="rotate(-120.102 39.2959 39.2354)" fill="black"/>
<circle cx="36.5" cy="35.5" r="4.5" fill="white"/>
</svg>
