<svg width="48" height="48" viewBox="0 0 48 48" fill="none" xmlns="http://www.w3.org/2000/svg">
<g clip-path="url(#clip0_225_1418)">
<path fill-rule="evenodd" clip-rule="evenodd" d="M34.9003 22.8896L34.7001 23.25C34.3334 23.8833 33.8574 24.3917 33.2721 24.775C32.6868 25.1583 32.0461 25.35 31.35 25.35H16.2L13.4 30.55H37.9501V33.55H13.85C12.45 33.55 11.4417 33.0833 10.825 32.15C10.2084 31.2167 10.2167 30.1667 10.85 29L14.05 23.1L6.45005 7H2.55005V4H8.40005L10.25 7.95H25.5584C25.2498 8.90166 25.062 9.90768 25.0129 10.95H11.75L17.25 22.35H31.65L31.8342 22.0141C32.7941 22.4407 33.8233 22.7397 34.9003 22.8896ZM11.8 42.8894C12.5 43.5965 13.3465 43.95 14.3394 43.95C15.3323 43.95 16.1823 43.6 16.8894 42.9C17.5965 42.2 17.95 41.3535 17.95 40.3606C17.95 39.3677 17.6 38.5177 16.9 37.8106C16.2 37.1035 15.3536 36.75 14.3606 36.75C13.3677 36.75 12.5177 37.1 11.8106 37.8C11.1036 38.5 10.75 39.3465 10.75 40.3394C10.75 41.3323 11.1 42.1823 11.8 42.8894ZM31.8 42.8894C32.5 43.5965 33.3465 43.95 34.3395 43.95C35.3324 43.95 36.1824 43.6 36.8895 42.9C37.5965 42.2 37.9501 41.3535 37.9501 40.3606C37.9501 39.3677 37.6 38.5177 36.9001 37.8106C36.2001 37.1035 35.3536 36.75 34.3606 36.75C33.3677 36.75 32.5177 37.1 31.8106 37.8C31.1036 38.5 30.75 39.3465 30.75 40.3394C30.75 41.3323 31.1 42.1823 31.8 42.8894Z" fill="black"/>
<mask id="path-2-inside-1_225_1418" fill="white">
<path d="M34.5 19.008V12.5003H28V9.50032L34.5 9.5V3H37.5V9.5L43.75 9.5556V12.5003H37.5V19.0003L34.5 19.008Z"/>
</mask>
<path d="M34.5 19.008V12.5003H28V9.50032L34.5 9.5V3H37.5V9.5L43.75 9.5556V12.5003H37.5V19.0003L34.5 19.008Z" fill="black"/>
<path d="M34.5 19.008H30.5V23.0182L34.5102 23.008L34.5 19.008ZM34.5 12.5003H38.5V8.50032H34.5V12.5003ZM28 12.5003H24V16.5003H28V12.5003ZM28 9.50032L27.9998 5.50032L24 5.50052V9.50032H28ZM34.5 9.5L34.5002 13.5L38.5 13.4998V9.5H34.5ZM34.5 3V-1H30.5V3H34.5ZM37.5 3H41.5V-1H37.5V3ZM37.5 9.5H33.5V13.4646L37.4644 13.4998L37.5 9.5ZM43.75 9.5556H47.75V5.59103L43.7856 5.55576L43.75 9.5556ZM43.75 12.5003V16.5003H47.75V12.5003H43.75ZM37.5 12.5003V8.50032H33.5V12.5003H37.5ZM37.5 19.0003L37.5102 23.0003L41.5 22.9901V19.0003H37.5ZM38.5 19.008V12.5003H30.5V19.008H38.5ZM34.5 8.50032H28V16.5003H34.5V8.50032ZM32 12.5003V9.50032H24V12.5003H32ZM28.0002 13.5003L34.5002 13.5L34.4998 5.5L27.9998 5.50032L28.0002 13.5003ZM38.5 9.5V3H30.5V9.5H38.5ZM34.5 7H37.5V-1H34.5V7ZM33.5 3V9.5H41.5V3H33.5ZM37.4644 13.4998L43.7144 13.5554L43.7856 5.55576L37.5356 5.50016L37.4644 13.4998ZM39.75 9.5556V12.5003H47.75V9.5556H39.75ZM43.75 8.50032H37.5V16.5003H43.75V8.50032ZM33.5 12.5003V19.0003H41.5V12.5003H33.5ZM37.4898 15.0003L34.4898 15.008L34.5102 23.008L37.5102 23.0003L37.4898 15.0003Z" fill="black" mask="url(#path-2-inside-1_225_1418)"/>
</g>
<defs>
<clipPath id="clip0_225_1418">
<rect width="48" height="48" fill="white"/>
</clipPath>
</defs>
</svg>
